<svg xmlns="http://www.w3.org/2000/svg" viewBox="0 0 1200 675" role="img" aria-label="Default activity cover">
  <defs>
    <linearGradient id="bg" x1="0" y1="0" x2="1" y2="1">
      <stop offset="0%" stop-color="#e0f2fe" />
      <stop offset="100%" stop-color="#f0fdf4" />
    </linearGradient>
    <linearGradient id="shape" x1="0" y1="0" x2="1" y2="1">
      <stop offset="0%" stop-color="#38bdf8" stop-opacity="0.8" />
      <stop offset="100%" stop-color="#22c55e" stop-opacity="0.7" />
    </linearGradient>
  </defs>

  <rect width="1200" height="675" fill="url(#bg)" />
  <circle cx="180" cy="130" r="120" fill="url(#shape)" opacity="0.25" />
  <circle cx="1080" cy="560" r="180" fill="url(#shape)" opacity="0.2" />
  <rect x="180" y="160" width="840" height="360" rx="28" fill="#ffffff" opacity="0.92" />

  <g transform="translate(350 240)">
    <rect x="0" y="0" width="160" height="120" rx="14" fill="#bae6fd" />
    <circle cx="52" cy="42" r="18" fill="#38bdf8" />
    <path d="M20 102l34-32a10 10 0 0 1 14 0l22 20 18-16a10 10 0 0 1 14 0l18 18v10z" fill="#0ea5e9" />
  </g>

  <text x="550" y="300" fill="#0f172a" font-size="48" font-family="Verdana, Geneva, sans-serif" font-weight="700">
    Activity Cover
  </text>
  <text x="550" y="355" fill="#334155" font-size="30" font-family="Verdana, Geneva, sans-serif">
    Upload an image to personalize this event
  </text>
</svg>
